<svg width="800" height="800" viewBox="0 0 800 800" fill="none" xmlns="http://www.w3.org/2000/svg">
<rect width="800" height="800" fill="#81B300"/>
<path d="M272.433 198C281.407 198 289.031 201.186 295.301 207.558C301.68 213.823 304.868 221.438 304.869 230.403V246.055C304.869 247.999 307.342 248.826 308.511 247.273L335.844 210.962C341.142 203.833 348.223 199.675 357.089 198.487C365.954 197.191 374.009 199.189 381.252 204.481C388.387 209.881 392.549 217.01 393.738 225.866C395.036 234.723 392.982 242.717 387.576 249.846L359.395 287.435C358.316 288.874 358.315 290.852 359.393 292.292L395.522 340.574C400.928 347.703 402.983 355.695 401.686 364.552C400.497 373.409 396.333 380.537 389.198 385.937C381.954 391.23 373.9 393.228 365.035 391.932C356.17 390.744 349.088 386.586 343.79 379.458L308.509 332.756C307.338 331.206 304.869 332.034 304.869 333.976V360.015C304.869 368.98 301.68 376.649 295.301 383.022C289.031 389.287 281.407 392.418 272.433 392.418C263.46 392.418 255.784 389.286 249.405 383.022C243.135 376.649 240 368.98 240 360.015V230.403C240 221.438 243.135 213.823 249.405 207.558C255.784 201.186 263.46 198 272.433 198Z" fill="#1C2024"/>
<path fill-rule="evenodd" clip-rule="evenodd" d="M491.309 199.62C509.256 199.62 524.554 205.939 537.203 218.576C549.852 231.213 556.177 246.496 556.177 264.426C556.177 282.355 549.852 297.64 537.203 310.277C536.746 310.734 536.288 311.18 535.831 311.614C534.275 313.09 533.991 315.505 535.277 317.221L552.772 340.574C558.178 347.703 560.231 355.695 558.934 364.552C557.745 373.408 553.583 380.537 546.448 385.937C539.205 391.229 531.15 393.228 522.285 391.932C513.42 390.744 506.338 386.586 501.04 379.458L478.872 340.841C477.839 339.043 475.092 339.776 475.091 341.85V360.015C475.091 368.98 471.903 376.649 465.524 383.022C459.254 389.286 451.631 392.418 442.658 392.418C433.685 392.418 426.008 389.286 419.63 383.022C413.359 376.649 410.223 368.98 410.223 360.015V232.023C410.223 223.058 413.359 215.443 419.63 209.178C426.008 202.806 433.685 199.62 442.658 199.62H491.309ZM482.418 250.655C475.149 250.655 469.256 256.549 469.256 263.819C469.256 271.089 475.149 276.982 482.418 276.982C489.687 276.982 495.58 271.089 495.58 263.819C495.58 256.549 489.687 250.655 482.418 250.655Z" fill="#1C2024"/>
<path d="M385.955 405.582C394.927 405.582 402.549 408.768 408.819 415.14C415.197 421.405 418.388 429.02 418.388 437.985V567.597C418.388 576.562 415.197 584.231 408.819 590.604C402.549 596.868 394.927 600 385.955 600C376.982 600 369.359 596.814 363.089 590.442L308.414 528.213C307.181 526.81 304.869 527.682 304.869 529.55V567.597C304.869 576.562 301.678 584.231 295.299 590.604C289.029 596.868 281.407 600 272.433 600C263.46 600 255.784 596.868 249.405 590.604C243.135 584.231 240 576.562 240 567.597V437.985C240 429.02 243.134 421.405 249.405 415.14C255.784 408.768 263.46 405.582 272.433 405.582C281.406 405.582 289.083 408.714 295.461 414.978L349.972 477.193C351.204 478.599 353.519 477.728 353.519 475.858V437.985C353.519 429.02 356.656 421.405 362.926 415.14C369.305 408.768 376.982 405.582 385.955 405.582Z" fill="#1C2024"/>
<path d="M462.696 405.582C471.669 405.582 479.292 408.768 485.562 415.14C491.941 421.405 495.131 429.02 495.131 437.985V529.524C495.132 531.761 496.945 533.574 499.181 533.574H527.567C536.54 533.574 544.162 536.76 550.433 543.133C556.811 549.397 560 557.013 560 565.977C560 574.942 556.811 582.612 550.433 588.984C544.162 595.248 536.54 598.38 527.567 598.38H462.696C453.724 598.38 446.048 595.248 439.67 588.984C433.399 582.612 430.263 574.942 430.263 565.977V437.985C430.263 429.02 433.399 421.405 439.67 415.14C446.048 408.768 453.724 405.582 462.696 405.582Z" fill="#1C2024"/>
<path d="M534.846 405.582C548.738 405.582 560 416.832 560 430.711C560 444.589 548.738 455.84 534.846 455.84C520.954 455.84 509.694 444.589 509.694 430.711C509.694 416.833 520.954 405.582 534.846 405.582Z" fill="#1C2024"/>
</svg>
